<svg xmlns="http://www.w3.org/2000/svg" viewBox="0 0 1200 630" width="1200" height="630">
  <!-- Background -->
  <rect width="1200" height="630" fill="#faf9f5"/>

  <!-- Leaf mark (large, left side) -->
  <g transform="translate(100, 120) scale(3.5)">
    <path d="M60 10 C30 25, 15 55, 20 85 C25 75, 35 65, 60 58 C85 65, 95 75, 100 85 C105 55, 90 25, 60 10Z" fill="#2b5d3a" opacity="0.12"/>
    <line x1="60" y1="18" x2="60" y2="82" stroke="#2b5d3a" stroke-width="1.5" stroke-linecap="round" opacity="0.12"/>
    <line x1="60" y1="38" x2="38" y2="52" stroke="#2b5d3a" stroke-width="1" stroke-linecap="round" opacity="0.12"/>
    <line x1="60" y1="52" x2="34" y2="64" stroke="#2b5d3a" stroke-width="1" stroke-linecap="round" opacity="0.12"/>
    <line x1="60" y1="38" x2="82" y2="52" stroke="#2b5d3a" stroke-width="1" stroke-linecap="round" opacity="0.12"/>
    <line x1="60" y1="52" x2="86" y2="64" stroke="#2b5d3a" stroke-width="1" stroke-linecap="round" opacity="0.12"/>
  </g>

  <!-- Leaf icon (small, beside title) -->
  <g transform="translate(80, 180) scale(0.7)">
    <path d="M60 10 C30 25, 15 55, 20 85 C25 75, 35 65, 60 58 C85 65, 95 75, 100 85 C105 55, 90 25, 60 10Z" fill="#2b5d3a"/>
    <line x1="60" y1="18" x2="60" y2="82" stroke="#faf9f5" stroke-width="2" stroke-linecap="round"/>
    <line x1="60" y1="38" x2="38" y2="52" stroke="#faf9f5" stroke-width="1.5" stroke-linecap="round"/>
    <line x1="60" y1="52" x2="34" y2="64" stroke="#faf9f5" stroke-width="1.5" stroke-linecap="round"/>
    <line x1="60" y1="38" x2="82" y2="52" stroke="#faf9f5" stroke-width="1.5" stroke-linecap="round"/>
    <line x1="60" y1="52" x2="86" y2="64" stroke="#faf9f5" stroke-width="1.5" stroke-linecap="round"/>
  </g>

  <!-- Title -->
  <text x="180" y="240" font-family="system-ui, -apple-system, sans-serif" font-size="72" font-weight="900" fill="#1a1a1a">EduEvidence</text>
  <text x="780" y="240" font-family="system-ui, -apple-system, sans-serif" font-size="72" font-weight="900" fill="#2b5d3a">JP</text>

  <!-- Subtitle -->
  <text x="180" y="310" font-family="system-ui, -apple-system, sans-serif" font-size="32" fill="#6b6b66">エビデンスを、現場の指導へ。</text>

  <!-- Description -->
  <text x="180" y="400" font-family="system-ui, -apple-system, sans-serif" font-size="22" fill="#6b6b66">日本の小学校教員のための</text>
  <text x="180" y="435" font-family="system-ui, -apple-system, sans-serif" font-size="22" fill="#6b6b66">教育エビデンスまとめサイト</text>

  <!-- Stats -->
  <text x="180" y="520" font-family="ui-monospace, monospace" font-size="18" fill="#2b5d3a">66 STRATEGIES</text>
  <text x="430" y="520" font-family="ui-monospace, monospace" font-size="18" fill="#6b6b66">·</text>
  <text x="470" y="520" font-family="ui-monospace, monospace" font-size="18" fill="#2b5d3a">4 COLUMNS</text>
  <text x="660" y="520" font-family="ui-monospace, monospace" font-size="18" fill="#6b6b66">·</text>
  <text x="700" y="520" font-family="ui-monospace, monospace" font-size="18" fill="#2b5d3a">CC BY-SA 4.0</text>

  <!-- Bottom accent line -->
  <rect x="0" y="610" width="1200" height="20" fill="#2b5d3a"/>
</svg>
